<?xml version="1.0" encoding="UTF-8"?>
<svg version="1.1" xmlns="http://www.w3.org/2000/svg" width="444" height="444">
<path d="M0 0 C0.90105469 0.02707031 1.80210937 0.05414062 2.73046875 0.08203125 C3.76107422 0.13423828 3.76107422 0.13423828 4.8125 0.1875 C7.5501287 4.85799515 8.15246234 8.17549719 8 13.5625 C7.95939453 15.43035156 7.95939453 15.43035156 7.91796875 17.3359375 C7.88316406 18.27695312 7.84835938 19.21796875 7.8125 20.1875 C8.781875 20.28546875 9.75125 20.3834375 10.75 20.484375 C30.90940466 22.66445683 57.58597618 28.26582265 72.1484375 43.65625 C73.8125 46.1875 73.8125 46.1875 73.5625 50 C73.19125 51.5778125 73.19125 51.5778125 72.8125 53.1875 C73.616875 53.5278125 73.616875 53.5278125 74.4375 53.875 C78.36150784 56.04353065 81.86740394 58.66712807 84.25 62.5 C84.765625 63.056875 85.28125 63.61375 85.8125 64.1875 C88.14543334 64.23070247 90.4795134 64.22772391 92.8125 64.1875 C97.44467763 66.1265511 99.23846406 68.97544118 101.8125 73.1875 C102.76687935 74.60683339 103.7255398 76.02329358 104.6875 77.4375 C110.10298516 85.61188496 114.7728652 93.51492904 118 102.8125 C118.34095703 103.79162354 118.68191406 104.77074707 119.03320312 105.77954102 C122.86149002 117.44119156 128.79659801 138.27070923 123.5 150.125 C121.8125 152.1875 121.8125 152.1875 118.8125 153.1875 C117.27699376 153.27669496 115.73787701 153.30947691 114.19978333 153.30775452 C112.78001945 153.30981651 112.78001945 153.30981651 111.33157349 153.31192017 C110.2950766 153.30832489 109.25857971 153.30472961 108.19067383 153.30102539 C107.09783585 153.30117142 106.00499786 153.30131744 104.87904358 153.3014679 C101.25918609 153.30077005 97.63937977 153.29298358 94.01953125 153.28515625 C91.51275155 153.28329162 89.00597148 153.28186793 86.49919128 153.28086853 C80.57064995 153.27743774 74.64212509 153.26955257 68.71359223 153.25951904 C60.11791712 153.24528722 51.52223575 153.24004405 42.92655182 153.23371124 C30.88851929 153.22400774 18.85053488 153.20484865 6.8125 153.1875 C6.8125 173.6475 6.8125 194.1075 6.8125 215.1875 C18.43514843 215.06899257 18.43514843 215.06899257 30.05737305 214.91723633 C31.52131493 214.90846926 32.98526415 214.90082584 34.44921875 214.89453125 C35.57680603 214.8715094 35.57680603 214.8715094 36.72717285 214.84802246 C41.25858004 214.84577288 44.26127613 215.28148952 47.8125 218.1875 C48.79293964 221.12881891 48.92871202 223.01251665 48.91015625 226.07421875 C48.90765869 226.91944092 48.90516113 227.76466309 48.90258789 228.63549805 C48.89348389 229.70453369 48.88437988 230.77356934 48.875 231.875 C48.854375 235.278125 48.83375 238.68125 48.8125 242.1875 C62.0125 242.1875 75.2125 242.1875 88.8125 242.1875 C88.8125 238.2275 88.8125 234.2675 88.8125 230.1875 C87.71550781 230.23390625 86.61851562 230.2803125 85.48828125 230.328125 C84.0338815 230.3656579 82.57945217 230.40205643 81.125 230.4375 C80.40376953 230.47101563 79.68253906 230.50453125 78.93945312 230.5390625 C75.07520336 230.6096424 73.23175648 230.44669687 69.85546875 228.359375 C67.2607199 225.60090395 66.8125 223.95508929 66.8125 220.1875 C68.52465478 217.02001366 69.34985609 216.34171464 72.8125 215.1875 C74.74421132 215.09218091 76.67908475 215.05686252 78.61314392 215.05378723 C79.82312546 215.04952225 81.03310699 215.04525726 82.27975464 215.04086304 C83.62261966 215.04121256 84.96548466 215.04167409 86.30834961 215.04223633 C87.72100412 215.03924454 89.13365781 215.03584196 90.54631042 215.03205872 C94.38512626 215.02321704 98.22391982 215.02088055 102.06274486 215.02024293 C105.26610887 215.01929386 108.46946768 215.01561562 111.67282969 215.01207083 C119.2293989 215.00392582 126.7859562 215.00148666 134.3425293 215.00219727 C142.14112434 215.00279824 149.93965024 214.99224253 157.73822778 214.9764536 C164.43129233 214.96338508 171.12433427 214.95801307 177.81741148 214.95865268 C181.81598659 214.95890784 185.81450026 214.95604622 189.81306267 214.94547462 C193.57312767 214.93580507 197.33307235 214.93570656 201.09314156 214.94299126 C202.47342733 214.94403849 203.85372055 214.94166599 205.23399353 214.9356308 C207.11760471 214.92792795 209.00125677 214.93374733 210.88487244 214.94026184 C212.46635527 214.93944469 212.46635527 214.93944469 214.07978725 214.93861103 C216.85829318 215.19167073 218.49194731 215.66579298 220.8125 217.1875 C222.25680855 220.07611709 222.18938506 221.98397701 221.8125 225.1875 C219.82707297 227.84247649 218.26553205 229.88326909 214.90136719 230.58764648 C212.74686869 230.67906326 210.6525842 230.6250384 208.5 230.5 C207.38915039 230.46616211 207.38915039 230.46616211 206.25585938 230.43164062 C204.44052643 230.3730815 202.62624319 230.28340886 200.8125 230.1875 C200.8125 234.1475 200.8125 238.1075 200.8125 242.1875 C201.88209961 242.17702637 202.95169922 242.16655273 204.05371094 242.15576172 C208.0269841 242.11952594 212.00024269 242.0965865 215.97363281 242.07763672 C217.69240781 242.0675873 219.41116575 242.05394555 221.12988281 242.03662109 C223.60225641 242.01232609 226.07440369 242.00100632 228.546875 241.9921875 C229.31368591 241.98186493 230.08049683 241.97154236 230.87054443 241.96090698 C237.73160166 241.95946836 237.73160166 241.95946836 240.8125 244.1875 C242.5625 246.8125 242.5625 246.8125 243.8125 249.1875 C246.76989465 244.88860675 249.65254151 240.59911859 252.125 236 C254.40434057 231.81254696 256.88545788 227.77486756 259.4375 223.75 C259.82204346 223.13423096 260.20658691 222.51846191 260.6027832 221.8840332 C262.49472513 218.92918408 263.85057293 217.16211805 266.8125 215.1875 C269.29595327 214.98020775 271.66454261 214.88344098 274.1484375 214.88671875 C274.86480377 214.88243362 275.58117004 214.8781485 276.31924438 214.87373352 C277.8339126 214.86799481 279.34860838 214.8674866 280.86328125 214.87182617 C283.17235807 214.87497932 285.4801447 214.85154731 287.7890625 214.82617188 C289.26301922 214.82389802 290.73697938 214.82319579 292.2109375 214.82421875 C292.89755463 214.815009 293.58417175 214.80579926 294.29159546 214.79631042 C299.02920806 214.84166625 302.40833645 215.78333645 305.8125 219.1875 C306.125 222 306.125 222 305.8125 225.1875 C303.9454009 227.49025556 302.45602259 228.86573871 299.8125 230.1875 C297.8531396 230.27260205 295.89087206 230.29467656 293.9296875 230.28515625 C292.76308594 230.28193359 291.59648437 230.27871094 290.39453125 230.27539062 C289.17121094 230.26701172 287.94789063 230.25863281 286.6875 230.25 C285.45644531 230.24548828 284.22539062 230.24097656 282.95703125 230.23632812 C279.90880608 230.2245133 276.86067686 230.20804028 273.8125 230.1875 C273.51609619 230.9494165 273.21969238 231.71133301 272.91430664 232.49633789 C269.19862368 241.57189147 263.3825519 250.00193938 258.0378418 258.20117188 C255.34095397 262.33995433 252.773827 266.53508707 250.296875 270.80859375 C248.8125 273.1875 248.8125 273.1875 246.25598145 276.1890564 C242.97814238 280.79273984 243.13694535 285.04490908 243.23242188 290.54150391 C243.22874352 292.06717735 243.22874352 292.06717735 243.22499084 293.62367249 C243.22282486 295.82258365 243.23205313 298.02152958 243.2514801 300.22035599 C243.28156738 303.70077587 243.280509 307.17996789 243.2713623 310.66049194 C243.25745397 318.04465068 243.28218872 325.42840761 243.3125 332.8125 C243.34762184 341.37736923 243.36690818 349.94164429 243.34437561 358.50657272 C243.34375743 361.93534218 243.37295363 365.36304046 243.40319824 368.79165649 C243.40112404 370.89186801 243.39765918 372.99207877 243.39257812 375.09228516 C243.41729942 376.52156593 243.41729942 376.52156593 243.44252014 377.97972107 C243.40085249 382.52935502 243.29539863 384.54677515 240.48384094 388.27723694 C237.06783867 390.72000374 234.93947565 390.84119818 230.76171875 390.89453125 C230.10291214 390.90965256 229.44410553 390.92477386 228.76533508 390.94035339 C226.676538 390.98308566 224.5891898 390.99205265 222.5 391 C221.07743583 391.02315614 219.65490583 391.04852383 218.23242188 391.07617188 C214.75914196 391.13887616 211.28634387 391.17132784 207.8125 391.1875 C207.49796875 392.321875 207.1834375 393.45625 206.859375 394.625 C201.52046347 413.56112365 192.60728994 429.21383387 174.8125 439.1875 C165.53028844 443.77404374 157.29237216 445.01341109 147.12939453 444.89428711 C144.94464914 444.87506291 142.76630313 444.91459259 140.58203125 444.95898438 C128.00938191 445.03418176 117.02367117 441.82021974 106.8125 434.1875 C106.8125 433.5275 106.8125 432.8675 106.8125 432.1875 C106.07515625 431.94 105.3378125 431.6925 104.578125 431.4375 C93.80644545 426.56894427 88.04001105 412.52055243 83.8125 402.1875 C82.35105599 397.99404568 82.8125 395.05973446 82.8125 390.1875 C22.9175 390.6825 22.9175 390.6825 -38.1875 391.1875 C-35.2175 392.6725 -35.2175 392.6725 -32.1875 394.1875 C-30.0625 396.625 -30.0625 396.625 -28.1875 399.1875 C-27.48625 399.8475 -26.785 400.5075 -26.0625 401.1875 C-21.6628157 405.88049658 -21.25766749 411.98644839 -21.1875 418.1875 C-21.73719875 423.89062457 -22.42767058 429.64437279 -26.1875 434.1875 C-26.8475 434.1875 -27.5075 434.1875 -28.1875 434.1875 C-28.43628906 434.78143555 -28.68507813 435.37537109 -28.94140625 435.98730469 C-31.25465408 440.07174618 -35.02371092 442.20489104 -39.1875 444.1875 C-42.89600759 444.99310364 -46.40455232 445.03155119 -50.1875 444.9375 C-51.12078125 444.96070313 -52.0540625 444.98390625 -53.015625 445.0078125 C-61.46584424 444.93700061 -66.64816315 441.68026663 -72.5625 435.84375 C-78.08297038 428.51851045 -78.08297038 428.51851045 -78.1875 423.1875 C-78.23519531 422.2903125 -78.28289062 421.393125 -78.33203125 420.46875 C-78.67729176 410.34110848 -76.95249931 403.61557063 -70.296875 395.9140625 C-67.5188557 393.64020226 -64.49016306 392.55251774 -61.1875 391.1875 C-61.95535828 391.18607498 -62.72321655 391.18464996 -63.51434326 391.18318176 C-70.75378419 391.16534585 -77.99251325 391.1237164 -85.23163986 391.05540943 C-88.95333654 391.02113015 -92.67462236 390.99602816 -96.39648438 390.99194336 C-99.98896386 390.98766215 -103.5805164 390.9592168 -107.1727066 390.91406822 C-108.54256031 390.90108709 -109.91252493 390.89678781 -111.28243256 390.90134621 C-113.20236522 390.90624655 -115.12229374 390.87731004 -117.04199219 390.84692383 C-118.13453308 390.84026199 -119.22707397 390.83360016 -120.35272217 390.82673645 C-124.19335543 389.96068171 -125.05429964 388.4358007 -127.1875 385.1875 C-127.68807125 382.42823696 -127.68807125 382.42823696 -127.68870544 379.37413025 C-127.69853958 378.21188431 -127.70837372 377.04963837 -127.71850586 375.85217285 C-127.70883789 374.58603149 -127.69916992 373.31989014 -127.68920898 372.01538086 C-127.69299412 370.66153909 -127.69849577 369.3077012 -127.70558167 367.95387268 C-127.71952722 364.28443057 -127.70837383 360.6154578 -127.69187045 356.94604182 C-127.67800737 353.10420674 -127.68448135 349.26239856 -127.68800354 345.42054749 C-127.69070435 338.97031093 -127.67724017 332.5202606 -127.65405273 326.07006836 C-127.62743243 318.61332559 -127.6256999 311.15689393 -127.6374411 303.70011991 C-127.64822011 296.52451723 -127.64203161 289.34902706 -127.62788582 282.1734333 C-127.62212819 279.12047223 -127.62220689 276.06759355 -127.62695122 273.01463127 C-127.6317236 269.42024001 -127.62160895 265.82618947 -127.59999657 262.23186302 C-127.59177828 260.28369144 -127.59827859 258.33547523 -127.60519409 256.38729858 C-127.59528946 255.22787247 -127.58538483 254.06844635 -127.57518005 252.87388611 C-127.57275016 251.86640792 -127.57032026 250.85892973 -127.56781673 249.8209219 C-127.12456983 246.75175347 -126.33846069 245.3951433 -124.1875 243.1875 C-120.56882441 241.9812748 -117.26243749 242.07933082 -113.5 242.125 C-112.79810547 242.12951172 -112.09621094 242.13402344 -111.37304688 242.13867188 C-109.64449462 242.15043073 -107.91598635 242.16836546 -106.1875 242.1875 C-106.23390625 240.99511719 -106.2803125 239.80273438 -106.328125 238.57421875 C-106.36564311 237.00783753 -106.40204323 235.44142924 -106.4375 233.875 C-106.48777344 232.69647461 -106.48777344 232.69647461 -106.5390625 231.49414062 C-106.63777682 225.69467454 -106.63777682 225.69467454 -104.39453125 223.16796875 C-101.17322418 221.73691021 -98.66356491 221.80829292 -95.1875 222.1875 C-93.15859008 223.70954741 -92.29833315 224.56882064 -91.84692383 227.08862305 C-91.8704895 228.13336792 -91.8704895 228.13336792 -91.89453125 229.19921875 C-91.9090332 230.33520508 -91.9090332 230.33520508 -91.92382812 231.49414062 C-91.94896484 232.27982422 -91.97410156 233.06550781 -92 233.875 C-92.02030273 235.07092773 -92.02030273 235.07092773 -92.04101562 236.29101562 C-92.07632911 238.25679967 -92.13013553 240.22223582 -92.1875 242.1875 C-89.8775 242.1875 -87.5675 242.1875 -85.1875 242.1875 C-85.23390625 240.99511719 -85.2803125 239.80273438 -85.328125 238.57421875 C-85.36564311 237.00783753 -85.40204323 235.44142924 -85.4375 233.875 C-85.48777344 232.69647461 -85.48777344 232.69647461 -85.5390625 231.49414062 C-85.63781158 225.69263212 -85.63781158 225.69263212 -83.390625 223.171875 C-80.12596726 221.71319814 -77.71533125 221.74652109 -74.1875 222.1875 C-71.984375 223.69921875 -71.984375 223.69921875 -70.1875 226.1875 C-69.8968876 229.08199949 -69.80563955 231.56699935 -69.9375 234.4375 C-69.95554688 235.18257812 -69.97359375 235.92765625 -69.9921875 236.6953125 C-70.03914351 238.52659701 -70.11088348 240.35721649 -70.1875 242.1875 C-66.2275 242.1875 -62.2675 242.1875 -58.1875 242.1875 C-58.22230469 240.56199219 -58.25710937 238.93648437 -58.29296875 237.26171875 C-58.32110394 235.13282281 -58.34840438 233.00391573 -58.375 230.875 C-58.40013672 229.80314453 -58.42527344 228.73128906 -58.45117188 227.62695312 C-58.46083984 226.59892578 -58.47050781 225.57089844 -58.48046875 224.51171875 C-58.4961792 223.56385498 -58.51188965 222.61599121 -58.52807617 221.6394043 C-58.1875 219.1875 -58.1875 219.1875 -56.85668945 217.41723633 C-53.96191921 215.28458199 -51.36913663 215.06380019 -47.8996582 215.07397461 C-47.02700317 215.07409546 -46.15434814 215.07421631 -45.25524902 215.07434082 C-44.34214966 215.07945679 -43.42905029 215.08457275 -42.48828125 215.08984375 C-41.64599976 215.09085083 -40.80371826 215.09185791 -39.93591309 215.09289551 C-36.79059487 215.09812616 -33.64529606 215.11208743 -30.5 215.125 C-23.466875 215.145625 -16.43375 215.16625 -9.1875 215.1875 C-9.1875 194.7275 -9.1875 174.2675 -9.1875 153.1875 C-21.24539062 153.20490234 -21.24539062 153.20490234 -33.546875 153.22265625 C-38.6328133 153.22776445 -43.71874846 153.23257834 -48.8046875 153.23632812 C-56.88119162 153.24231098 -64.95768451 153.24924751 -73.03417969 153.26293945 C-79.5439881 153.27397016 -86.05378894 153.27978089 -92.56360626 153.28237724 C-95.04995159 153.28422805 -97.53629624 153.2878421 -100.02263641 153.29323006 C-103.49915513 153.30046561 -106.97562343 153.30148987 -110.45214844 153.30102539 C-111.48505005 153.30462067 -112.51795166 153.30821594 -113.58215332 153.31192017 C-115.00397919 153.30985817 -115.00397919 153.30985817 -116.45452881 153.30775452 C-117.27676815 153.30867631 -118.09900749 153.3095981 -118.94616318 153.31054783 C-121.21269695 153.1861167 -123.05739359 152.97934723 -125.1875 152.1875 C-130.60067038 144.06774443 -126.99938821 128.396265 -125.29296875 119.13671875 C-122.51830285 105.82628798 -117.55286443 93.58540146 -110.1875 82.1875 C-109.44926646 80.85916531 -108.7186433 79.52653458 -108 78.1875 C-106.28834398 75.35441418 -104.54648615 73.47038982 -102.1875 71.1875 C-101.73375 70.424375 -101.28 69.66125 -100.8125 68.875 C-95.50042544 60.08964592 -87.17458647 52.51126394 -79.1875 46.1875 C-78.5275 46.1875 -77.8675 46.1875 -77.1875 46.1875 C-76.8575 45.1975 -76.5275 44.2075 -76.1875 43.1875 C-69.52614616 38.14675989 -61.5118211 34.84688892 -53.9375 31.4375 C-52.88820313 30.95667969 -51.83890625 30.47585937 -50.7578125 29.98046875 C-44.18614415 26.99410301 -37.89272771 24.36425114 -30.74609375 23.1171875 C-29.75029297 22.94316406 -28.75449219 22.76914062 -27.72851562 22.58984375 C-26.70435547 22.41582031 -25.68019531 22.24179687 -24.625 22.0625 C-23.59697266 21.88074219 -22.56894531 21.69898437 -21.50976562 21.51171875 C-17.00424928 20.73500628 -12.77134832 20.08117495 -8.1875 20.1875 C-8.22230469 18.99511719 -8.25710937 17.80273438 -8.29296875 16.57421875 C-8.32110753 15.00782658 -8.3484076 13.44141919 -8.375 11.875 C-8.40013672 11.08931641 -8.42527344 10.30363281 -8.45117188 9.49414062 C-8.46083984 8.73681641 -8.47050781 7.97949219 -8.48046875 7.19921875 C-8.4961792 6.50272217 -8.51188965 5.80622559 -8.52807617 5.08862305 C-7.6621924 0.25519158 -4.31593884 -0.16815346 0 0 Z M103.8125 230.1875 C103.8125 234.1475 103.8125 238.1075 103.8125 242.1875 C114.7025 242.1875 125.5925 242.1875 136.8125 242.1875 C136.8125 238.2275 136.8125 234.2675 136.8125 230.1875 C125.9225 230.1875 115.0325 230.1875 103.8125 230.1875 Z M152.8125 230.1875 C152.8125 234.1475 152.8125 238.1075 152.8125 242.1875 C163.7025 242.1875 174.5925 242.1875 185.8125 242.1875 C185.8125 238.2275 185.8125 234.2675 185.8125 230.1875 C174.9225 230.1875 164.0325 230.1875 152.8125 230.1875 Z M97.8125 390.1875 C98.19755413 395.29189988 98.53758833 399.6906802 101.1875 404.1875 C101.60773438 404.93 102.02796875 405.6725 102.4609375 406.4375 C103.78504029 408.48808743 103.78504029 408.48808743 106.8125 409.1875 C108.95431719 407.83144755 108.95431719 407.83144755 111 405.875 C111.71542969 405.23949219 112.43085938 404.60398437 113.16796875 403.94921875 C115.03995867 402.34550079 115.03995867 402.34550079 114.8125 400.1875 C115.451875 399.919375 116.09125 399.65125 116.75 399.375 C119.14381686 398.30082248 119.14381686 398.30082248 119.8125 395.1875 C119.13961481 392.35405264 119.13961481 392.35405264 116.8125 390.1875 C113.57111859 389.54825567 110.41266738 389.71867346 107.125 389.875 C105.78598633 389.90883789 105.78598633 389.90883789 104.41992188 389.94335938 C102.21575728 390.00229426 100.01497328 390.08449182 97.8125 390.1875 Z M171.8125 390.1875 C171.1525 392.4975 170.4925 394.8075 169.8125 397.1875 C170.555 397.909375 171.2975 398.63125 172.0625 399.375 C174.8125 402.1875 174.8125 402.1875 176.8125 404.8125 C178.92945777 407.32638735 180.92391217 408.66296753 183.8125 410.1875 C186.99330224 407.56636971 188.06282955 404.55224374 189.5 400.75 C189.93699219 399.61691406 190.37398438 398.48382813 190.82421875 397.31640625 C192.01329223 394.09866909 192.01329223 394.09866909 191.8125 390.1875 C185.2125 390.1875 178.6125 390.1875 171.8125 390.1875 Z M129.8125 407.1875 C128.37185235 408.60096562 126.93510985 410.01841211 125.5 411.4375 C124.69949219 412.22640625 123.89898437 413.0153125 123.07421875 413.828125 C121.12506349 415.86144067 119.43828594 417.89351078 117.8125 420.1875 C118.8572879 423.18725913 119.63740202 424.08921753 122.45703125 425.671875 C123.50246094 426.08953125 124.54789063 426.5071875 125.625 426.9375 C126.66269531 427.36546875 127.70039063 427.7934375 128.76953125 428.234375 C132.07627853 429.43658558 132.07627853 429.43658558 136.8125 429.1875 C136.8125 422.5875 136.8125 415.9875 136.8125 409.1875 C134.5025 408.5275 132.1925 407.8675 129.8125 407.1875 Z M152.8125 409.1875 C152.8125 416.1175 152.8125 423.0475 152.8125 430.1875 C162.12360787 427.41015882 162.12360787 427.41015882 170.8125 423.1875 C171.1425 422.1975 171.4725 421.2075 171.8125 420.1875 C171.11125 419.506875 170.41 418.82625 169.6875 418.125 C166.99811935 415.45854021 164.61441036 412.58987504 162.2421875 409.640625 C158.81703992 406.15932746 157.29388848 407.39494461 152.8125 409.1875 Z " fill="#0B0908" transform="translate(133.1875,-0.1875)"/>
<path d="M0 0 C11 0 11 0 14.42578125 3.41796875 C15.42694644 4.98359208 16.38730404 6.57581746 17.3125 8.1875 C18.39673443 9.91822002 19.48138613 11.64867869 20.56640625 13.37890625 C21.39615967 14.74813232 21.39615967 14.74813232 22.24267578 16.14501953 C25.27092829 21.06477292 28.52602626 25.83229336 31.75 30.625 C33.43725788 33.16917143 35.12327905 35.71414872 36.80761719 38.26025391 C37.88468663 39.94585585 37.88468663 39.94585585 39 41 C41.32817964 41.36760731 43.6618385 41.70241581 46 42 C46.27070312 41.26136719 46.54140625 40.52273438 46.8203125 39.76171875 C47.9506777 37.11546644 49.18104268 35.12588948 50.875 32.8125 C54.37764266 27.9220178 57.73428191 22.94736035 61.0625 17.9375 C61.55669434 17.19411377 62.05088867 16.45072754 62.56005859 15.68481445 C63.04684082 14.95222412 63.53362305 14.21963379 64.03515625 13.46484375 C64.53023682 12.73861816 65.02531738 12.01239258 65.53540039 11.26416016 C67.04853312 8.99992657 67.04853312 8.99992657 68.32202148 6.48193359 C71.64105165 0.49664157 71.64105165 0.49664157 75.42163086 -0.88500977 C78.32107254 -1.28914294 81.01224874 -1.3526702 83.9375 -1.25 C84.93297852 -1.22687744 85.92845703 -1.20375488 86.95410156 -1.17993164 C91.26413499 -0.89826529 94.13011664 -0.64373938 97.64453125 1.95703125 C99.4429878 4.87569432 100.68012433 7.83666161 102 11 C103.54171021 13.55174847 105.23896647 15.98824729 106.9375 18.4375 C107.79260029 19.70943733 108.64547969 20.98287063 109.49609375 22.2578125 C109.91358887 22.88075195 110.33108398 23.50369141 110.76123047 24.14550781 C111.96294363 25.944525 113.15680301 27.74846754 114.34765625 29.5546875 C115.05792969 30.62976563 115.76820313 31.70484375 116.5 32.8125 C117.44359375 34.24529297 117.44359375 34.24529297 118.40625 35.70703125 C119.93995508 38.05799321 119.93995508 38.05799321 122 40 C125.25896223 40.57425612 126.91254207 40.86557024 130 40 C132.74634335 37.56661125 134.51741594 34.61026712 136.43359375 31.50390625 C136.99699966 30.64063217 137.56040558 29.77735809 138.1408844 28.88792419 C139.93320201 26.12902779 141.68544388 23.34709927 143.4375 20.5625 C144.64258671 18.69038396 145.85024108 16.81991807 147.06054688 14.95117188 C149.71349675 10.84952101 152.34077904 6.73264135 154.94651794 2.60084534 C156 1 156 1 157 0 C163.74552201 -1.25970065 173.7244775 -2.78698069 179.74609375 1.13818359 C182.85398087 4.44526603 184.72812529 8.51292941 186.71142578 12.55517578 C189.21913339 17.31307346 192.35463945 21.68247404 195.375 26.125 C196.54957607 27.89837332 197.72406026 29.6718075 198.8984375 31.4453125 C203.00886985 38.36086474 203.00886985 38.36086474 209.75 41.8125 C210.8225 41.874375 211.895 41.93625 213 42 C213.27070313 41.26136719 213.54140625 40.52273438 213.8203125 39.76171875 C214.9506777 37.11546644 216.18104268 35.12588948 217.875 32.8125 C221.37764266 27.9220178 224.73428191 22.94736035 228.0625 17.9375 C228.55669434 17.19411377 229.05088867 16.45072754 229.56005859 15.68481445 C230.04684082 14.95222412 230.53362305 14.21963379 231.03515625 13.46484375 C231.50203039 12.77960853 231.96890453 12.0943733 232.44992638 11.38837337 C234.02166048 9.04539634 234.02166048 9.04539634 235.2489109 6.63115025 C238.66953459 0.49797528 238.66953459 0.49797528 242.17141342 -0.81273079 C244.83538562 -1.10916888 247.36544214 -1.1147183 250.04443359 -1.02172852 C251.04017395 -1.02304276 252.03591431 -1.02435699 253.06182861 -1.02571106 C256.34251483 -1.01945654 259.61855884 -0.94954193 262.8984375 -0.87890625 C265.17670173 -0.86211425 267.45499851 -0.84930588 269.73330688 -0.84031677 C275.72155946 -0.80599976 281.70783829 -0.71763254 287.6953125 -0.61798096 C294.883603 -0.50959859 302.07255461 -0.4683803 309.26142883 -0.41590118 C320.17565739 -0.32870762 331.08555797 -0.15625129 342 0 C342 30.36 342 60.72 342 92 C334.41 92 326.82 92 319 92 C318.79375 90.30875 318.5875 88.6175 318.375 86.875 C315.75566005 71.53831299 307.69960706 58.1058368 295 49 C293.63294922 48.01193359 293.63294922 48.01193359 292.23828125 47.00390625 C278.17592672 37.57711263 261.65274047 34.49587287 244.98046875 37.6953125 C229.21619551 41.49662661 216.69372466 49.9731895 207 63 C206.49855469 63.65613281 205.99710938 64.31226563 205.48046875 64.98828125 C199.55281621 73.6771694 198.91905601 80.90758716 196 92 C154.09 92 112.18 92 69 92 C68.67 88.7 68.34 85.4 68 82 C67.34 81.01 66.68 80.02 66 79 C63 78.58333333 63 78.58333333 60 79 C56.74097068 81.83223972 56.74097068 81.83223972 57 92 C38.19 92 19.38 92 0 92 C0 61.64 0 31.28 0 0 Z " fill="#F8DA40" transform="translate(20,284)"/>
<path d="M0 0 C112.86 0 225.72 0 342 0 C342 4.62 342 9.24 342 14 C229.14 14 116.28 14 0 14 C0 9.38 0 4.76 0 0 Z " fill="#F7882F" transform="translate(20,257)"/>
<path d="M0 0 C2.58230952 0.36934893 3.75980806 0.74562877 5.57568359 2.66870117 C9.52582007 8.63520579 11.79348054 14.41522811 13.625 21.3125 C13.91785889 22.38773926 14.21071777 23.46297852 14.51245117 24.57080078 C17.53154743 36.18759464 19.20810155 47.95162657 20.62548828 59.85595703 C20.95655299 62.63526034 21.31493853 65.40909349 21.68359375 68.18359375 C23.23499304 80.47916373 23.15017418 92.61062978 23 105 C9.14 105 -4.72 105 -19 105 C-19.27870214 75.87562599 -19.27870214 75.87562599 -17.55859375 65.53125 C-17.14000958 62.88509555 -16.82516843 60.31924248 -16.59765625 57.65625 C-14.93745883 38.24251983 -12.02257282 15.86979612 0 0 Z " fill="#EDE7E7" transform="translate(130,34)"/>
<path d="M0 0 C-0.26393555 0.83917969 -0.26393555 0.83917969 -0.53320312 1.6953125 C-10.5076949 34.09287848 -12.98476485 66.29419296 -14 100 C-25.88 100 -37.76 100 -50 100 C-50 83.73656734 -50 83.73656734 -48.3125 76.125 C-48.13243408 75.2784082 -47.95236816 74.43181641 -47.7668457 73.55957031 C-41.44983869 44.83756149 -29.37076932 17.75518828 -4.0625 1.0625 C-2 0 -2 0 0 0 Z " fill="#EE6A6A" transform="translate(112,39)"/>
<path d="M0 0 C18.03335942 6.41258449 29.30321596 23.79754821 37.32080078 40.18603516 C43.5097135 53.20886674 47.1074647 66.43470752 48.6875 80.75 C48.81705078 81.83410156 48.94660156 82.91820313 49.08007812 84.03515625 C49.70521088 89.45297348 50 94.5077779 50 100 C38.45 100 26.9 100 15 100 C14.896875 96.431875 14.79375 92.86375 14.6875 89.1875 C14.18850263 75.36720262 12.78801575 61.70812072 11 48 C10.88398438 47.11054687 10.76796875 46.22109375 10.6484375 45.3046875 C9.39317165 35.99236643 7.62370814 26.84053936 5.5 17.6875 C5.29842285 16.80916504 5.0968457 15.93083008 4.88916016 15.02587891 C3.74902604 10.31057726 2.29747145 6.30775897 0 2 C0 1.34 0 0.68 0 0 Z " fill="#EF6B6B" transform="translate(151,39)"/>
<path d="M0 0 C3.35147109 1.15206819 5.9484693 2.65386873 8.8125 4.6875 C11.87833683 6.67127677 13.73216143 7.31795859 17.375 6.875 C20.80637098 6.19050597 20.80637098 6.19050597 23 5 C26.06543831 7.25733802 29.05142777 9.59199934 32 12 C32.88171875 12.69996094 32.88171875 12.69996094 33.78125 13.4140625 C35.1875 14.75 35.1875 14.75 37 18 C36.79971381 21.8054377 36.02336183 25.33675575 35 29 C35.66 29 36.32 29 37 29 C46.33193029 39.94610201 52.77843073 53.36989457 57 67 C57.54140625 68.64355469 57.54140625 68.64355469 58.09375 70.3203125 C59.17925073 74.72781976 59.44959243 78.91805318 59.625 83.4375 C59.74875 86.263125 59.8725 89.08875 60 92 C50.43 92 40.86 92 31 92 C30.9175 89.628125 30.835 87.25625 30.75 84.8125 C29.99389376 69.83982077 26.80202098 55.17556594 22 41 C21.60941406 39.60394531 21.60941406 39.60394531 21.2109375 38.1796875 C17.42693151 25.20090062 10.22312905 12.85480335 1.3984375 2.65234375 C0 1 0 1 0 0 Z " fill="#EBE6E6" transform="translate(183,47)"/>
<path d="M0 0 C0.99 0.33 1.98 0.66 3 1 C2.38125 1.62261719 2.38125 1.62261719 1.75 2.2578125 C-3.62537702 7.99314781 -7.38423587 14.3953837 -11.06982422 21.27441406 C-11.90140439 22.8170935 -12.7632079 24.34339231 -13.62890625 25.8671875 C-24.60555316 46.10090217 -26.81677694 69.49600846 -29 92 C-38.24 92 -47.48 92 -57 92 C-57 62.65137387 -44.26131957 38.34335978 -24.125 17.6875 C-18.33141736 11.91959054 -11.9012676 7.36308328 -5 3 C-4.11183594 2.40316406 -3.22367188 1.80632813 -2.30859375 1.19140625 C-1.54675781 0.79824219 -0.78492188 0.40507813 0 0 Z " fill="#EBE5E5" transform="translate(78,47)"/>
<path d="M0 0 C3.63 0 7.26 0 11 0 C13.69094716 5.40185934 14.4255874 9.51315719 14.34057617 15.50561523 C14.34101425 16.32593735 14.34145233 17.14625946 14.34190369 17.99143982 C14.33982735 20.68074021 14.31655144 23.36940337 14.29296875 26.05859375 C14.28736868 27.93188639 14.28310052 29.80518344 14.28010559 31.67848206 C14.2686892 36.59239988 14.23924974 41.50604876 14.20599365 46.41986084 C14.16980694 52.32450555 14.15611634 58.22924052 14.13863373 64.13396454 C14.1096104 73.08949634 14.05210087 82.04443885 14 91 C27.86 91 41.72 91 56 91 C56 88.03 56 85.06 56 82 C56.33 82 56.66 82 57 82 C57 85.3 57 88.6 57 92 C38.19 92 19.38 92 0 92 C0 61.64 0 31.28 0 0 Z " fill="#F0C807" transform="translate(20,284)"/>
<path d="M0 0 C25.41 0 50.82 0 77 0 C77 4.62 77 9.24 77 14 C51.59 14 26.18 14 0 14 C0 9.38 0 4.76 0 0 Z " fill="#D7C7C5" transform="translate(90,229)"/>
<path d="M0 0 C3.8125 1.0625 3.8125 1.0625 5.875 2.6875 C7.24328821 6.15383012 6.70612868 8.48798529 5.8125 12.0625 C4.85608442 13.4274348 3.86263268 14.76828243 2.8125 16.0625 C3.245625 16.59617188 3.67875 17.12984375 4.125 17.6796875 C7.92700612 22.76663087 9.63994083 26.42870834 9.203125 32.83203125 C8.45510573 37.1032213 6.83589715 39.20966905 3.5625 41.9375 C-0.16755537 43.46343174 -2.34686413 43.20046618 -6.1875 42.0625 C-8.1875 40 -8.1875 40 -9.1875 37.0625 C-8.86648277 35.07219315 -8.54356776 33.08199221 -8.1875 31.09765625 C-8.1875 28.4958839 -8.93491829 27.61786283 -10.5625 25.625 C-13.75612681 21.68887732 -14.62202538 18.11168497 -14.1875 13.0625 C-12.24130777 6.37096253 -7.66982631 -0.56292303 0 0 Z " fill="#1B1B1B" transform="translate(279.1875,158.9375)"/>
<path d="M0 0 C2.49455917 3.74183875 2.37606522 5.56243036 2 10 C0.5 13.4375 0.5 13.4375 -1 16 C-0.566875 16.37125 -0.13375 16.7425 0.3125 17.125 C4.07216262 21.30240291 5.58467741 25.50119167 5.3515625 31.04296875 C4.5576727 35.46228866 1.99682866 38.18679768 -1.375 40.9375 C-4.73630076 42.2980265 -6.55559006 42.04829868 -10 41 C-12.30964329 39.40714256 -12.88448353 38.35617577 -13.75 35.6875 C-14 33 -14 33 -13.3125 30.0625 C-12.65821208 26.86644052 -12.65821208 26.86644052 -14.875 24.1875 C-17.60730721 20.08903919 -18.46275563 16.90991569 -18 12 C-16.42592296 7.21536053 -14.35858709 3.28514995 -10.6875 -0.1875 C-6.69964004 -1.39313208 -4.07274308 -0.93472792 0 0 Z " fill="#202020" transform="translate(246,160)"/>
<path d="M0 0 C1.9375 1.125 1.9375 1.125 3 3 C3.66829865 9.12607099 3.66829865 9.12607099 1.375 12.125 C0.92125 12.74375 0.4675 13.3625 0 14 C0.73621235 16.87122816 1.82806506 18.775162 3.625 21.125 C5.78428273 25.63986389 5.67210519 30.08846209 5 35 C3.00437434 38.49234491 0.91400935 40.84882078 -3 42 C-6.05789452 41.81278197 -8.18357807 41.59016181 -10.69140625 39.77734375 C-12.50862084 37.30918662 -12.13610374 35.76532712 -11.875 32.75 C-11.73619712 28.6766694 -11.83098888 26.56128676 -14.5 23.4375 C-17.41994178 19.93189655 -17.78621356 17.08132336 -17.55859375 12.5703125 C-16.56858311 8.01487893 -14.17007345 4.37365615 -11 1 C-7.1214233 -1.47096701 -4.44687304 -1.05107908 0 0 Z " fill="#181818" transform="translate(315,160)"/>
<path d="M0 0 C3.94557884 2.63038589 7.24438058 5.16284728 8.26171875 10.01953125 C8.54350545 15.72328282 7.25195409 19.34940251 3.8125 23.875 C0.09064615 26.71069817 -2.71579795 27.05991574 -7.25 26.75 C-11.1881031 26.18825857 -14.12929914 25.56250984 -17.1875 22.875 C-20.4669032 18.1255195 -21.09225417 13.48447587 -20.1875 7.875 C-15.86022322 -0.77955356 -8.95510733 -3.16062612 0 0 Z " fill="#F28C8D" transform="translate(284.1875,369.125)"/>
<path d="M0 0 C4.95 0 9.9 0 15 0 C14.67 4.29 14.34 8.58 14 13 C121.91 13 229.82 13 341 13 C341 8.71 341 4.42 341 0 C341.33 0 341.66 0 342 0 C342 4.62 342 9.24 342 14 C229.14 14 116.28 14 0 14 C0 9.38 0 4.76 0 0 Z " fill="#D27C37" transform="translate(20,257)"/>
<path d="M0 0 C33.66 0 67.32 0 102 0 C102 30.36 102 60.72 102 92 C94.41 92 86.82 92 79 92 C79 89.03 79 86.06 79 83 C81 86 81 86 82 89 C87.94 89.33 93.88 89.66 100 90 C100 60.96 100 31.92 100 2 C50.005 2.495 50.005 2.495 -1 3 C-0.67 2.01 -0.34 1.02 0 0 Z " fill="#C4AF42" transform="translate(260,284)"/>
<path d="M0 0 C0.99 0 1.98 0 3 0 C3.03738281 1.05960937 3.07476562 2.11921875 3.11328125 3.2109375 C3.17893258 4.59899424 3.24538021 5.98701349 3.3125 7.375 C3.33505859 8.07367188 3.35761719 8.77234375 3.38085938 9.4921875 C3.46984296 11.77288941 3.46984296 11.77288941 4 15 C7.6441774 17.4294516 9.71241272 17.16179575 14 17 C15.15570704 13.53287889 15.32835293 10.4585044 15.5625 6.8125 C15.64628906 5.54019531 15.73007813 4.26789063 15.81640625 2.95703125 C15.90728516 1.49330078 15.90728516 1.49330078 16 0 C19.5565158 1.87185042 21.67910803 3.12441588 23 7 C23.73285105 11.68683808 23.44402628 15.14366361 21.25 19.375 C17.92501545 23.25414864 15.13709993 25.64164214 9.9140625 26.23828125 C5.93969051 26.36714314 3.62250589 26.36538389 0.125 24.3125 C-4.35768882 19.43427981 -5.54436503 16.04025387 -5.3671875 9.4453125 C-4.75892358 5.39453362 -2.88875122 2.88875122 0 0 Z " fill="#DF8586" transform="translate(74,405)"/>
<path d="M0 0 C4.25314786 1.67642324 7.12101814 4.7175909 10.3125 7.875 C10.87517578 8.40480469 11.43785156 8.93460937 12.01757812 9.48046875 C13.61328125 11.0546875 13.61328125 11.0546875 16 14 C15.60956581 17.2357497 14.2229899 19.94252524 13 23 C5.74 23 -1.52 23 -9 23 C-5.71428571 6.57142857 -5.71428571 6.57142857 0 0 Z " fill="#F3D741" transform="translate(238,353)"/>
<path d="M0 0 C9.9 0 19.8 0 30 0 C29.12315558 3.50737768 28.54390346 4.97090108 26.56640625 7.78515625 C25.8403418 8.82833008 25.8403418 8.82833008 25.09960938 9.89257812 C24.59236328 10.60865234 24.08511719 11.32472656 23.5625 12.0625 C22.56378799 13.49087556 21.56508955 14.91926061 20.56640625 16.34765625 C20.12240479 16.97679932 19.67840332 17.60594238 19.22094727 18.25415039 C18.1252469 19.8209077 17.06052059 21.40921911 16 23 C15.34 23 14.68 23 14 23 C12.37890625 20.734375 12.37890625 20.734375 10.5625 17.75 C8.06250136 13.66004647 8.06250136 13.66004647 5.27734375 9.765625 C4 8 4 8 4 6 C3.34 6 2.68 6 2 6 C1.34 4.02 0.68 2.04 0 0 Z " fill="#EC6A6B" transform="translate(47,284)"/>
<path d="M0 0 C9.9 0 19.8 0 30 0 C28.96842934 4.12628265 27.78231595 5.91800533 25.25 9.25 C22.70155271 12.65249683 20.29968008 16.03481878 18.125 19.6875 C17.42375 20.780625 16.7225 21.87375 16 23 C15.34 23 14.68 23 14 23 C12.51953125 20.9453125 12.51953125 20.9453125 10.8125 18.125 C7.81989363 13.26515814 4.64356597 8.60929391 1.28515625 3.99609375 C0 2 0 2 0 0 Z " fill="#ED6B6B" transform="translate(214,284)"/>
<path d="M0 0 C9.9 0 19.8 0 30 0 C25.88917477 8.22165045 20.65610486 15.76930185 15 23 C11.25427516 19.57733301 8.59112458 15.70261868 5.8125 11.5 C5.36197266 10.83613281 4.91144531 10.17226563 4.44726562 9.48828125 C4.01736328 8.84246094 3.58746094 8.19664062 3.14453125 7.53125 C2.75628174 6.94923828 2.36803223 6.36722656 1.96801758 5.76757812 C1 4 1 4 0 0 Z " fill="#E16767" transform="translate(131,284)"/>
<path d="M0 0 C0.99 0 1.98 0 3 0 C8.96520445 6.72413631 10.07850129 14.33791214 11 23 C4.07 23 -2.86 23 -10 23 C-13 17 -13 17 -13.03125 14.9765625 C-11.43100211 11.90942071 -8.98890652 9.71971294 -6.5 7.375 C-2.79727917 4.04275785 -2.79727917 4.04275785 0 0 Z " fill="#F5D741" transform="translate(315,353)"/>
<path d="M0 0 C10.125 1.125 10.125 1.125 14.5625 3.0625 C15.83287109 3.60583984 15.83287109 3.60583984 17.12890625 4.16015625 C17.74636719 4.43730469 18.36382812 4.71445312 19 5 C19 5.66 19 6.32 19 7 C20.32 7.66 21.64 8.32 23 9 C21.0293615 11.3647662 19.03390035 13.69031655 17 16 C16.3503125 16.7528125 15.700625 17.505625 15.03125 18.28125 C13.10680898 20.38333173 11.27799794 22.28581792 9 24 C5.6875 24.0625 5.6875 24.0625 3 23 C2.01 22.67 1.02 22.34 0 22 C0 14.74 0 7.48 0 0 Z " fill="#EBCF41" transform="translate(284,334)"/>
<path d="M0 0 C0 7.26 0 14.52 0 22 C-6.17647059 24.47058824 -6.17647059 24.47058824 -10 23 C-11.38509525 21.37609523 -12.70758949 19.69859667 -14 18 C-16.09087899 16.16292713 -18.22429525 14.39573266 -20.390625 12.6484375 C-22 11 -22 11 -22 8 C-16.1299798 2.94526038 -7.68379282 0 0 0 Z " fill="#F0D443" transform="translate(271,334)"/>
<path d="M0 0 C25.41 0 50.82 0 77 0 C77 4.62 77 9.24 77 14 C51.59 14 26.18 14 0 14 C0 9.38 0 4.76 0 0 Z M14 1 C14 4.96 14 8.92 14 13 C34.46 13 54.92 13 76 13 C76 9.04 76 5.08 76 1 C55.54 1 35.08 1 14 1 Z " fill="#B9ADAC" transform="translate(90,229)"/>
<path d="M0 0 C1.485 0.99 1.485 0.99 3 2 C3 4.64 3 7.28 3 10 C43.92 10 84.84 10 127 10 C127.33 7.36 127.66 4.72 128 2 C128.66 1.34 129.32 0.68 130 0 C129.34 3.96 128.68 7.92 128 12 C86.09 12 44.18 12 1 12 C0.67 8.04 0.34 4.08 0 0 Z " fill="#CBB74E" transform="translate(88,364)"/>
<path d="M0 0 C4.95 0 9.9 0 15 0 C14.67 4.62 14.34 9.24 14 14 C9.38 14 4.76 14 0 14 C0 9.38 0 4.76 0 0 Z " fill="#DF6B1D" transform="translate(20,257)"/>
<path d="M0 0 C0.99 0 1.98 0 3 0 C3.28875 1.093125 3.5775 2.18625 3.875 3.3125 C4.81893204 7.04013845 4.81893204 7.04013845 7 10 C11.33454707 10.86861258 15.11951217 10.43125935 19.0625 8.5 C19.701875 8.005 20.34125 7.51 21 7 C21.33 7.33 21.66 7.66 22 8 C21.9375 11.375 21.9375 11.375 21 15 C17.32444711 18.01583827 14.31639154 18.16274421 9.75 17.8125 C5.30769231 17.30769231 5.30769231 17.30769231 3 15 C3.33 14.34 3.66 13.68 4 13 C3.38125 12.938125 2.7625 12.87625 2.125 12.8125 C0 12 0 12 -1.25 9.75 C-2.00793269 6.97091346 -2.30925694 4.86062669 -2 2 C-1.34 1.34 -0.68 0.68 0 0 Z " fill="#F38E8F" transform="translate(267,378)"/>
<path d="M0 0 C3.5565158 1.87185042 5.67910803 3.12441588 7 7 C7.73285105 11.68683808 7.44402628 15.14366361 5.25 19.375 C3.25703761 21.70012279 1.6816892 23.52939624 -1 25 C-1.99 24.67 -2.98 24.34 -4 24 C-3.67 22.68 -3.34 21.36 -3 20 C-5.97 20 -8.94 20 -12 20 C-11.505 18.515 -11.505 18.515 -11 17 C-8.03 17 -5.06 17 -2 17 C-0.84429296 13.53287889 -0.67164707 10.4585044 -0.4375 6.8125 C-0.35371094 5.54019531 -0.26992187 4.26789063 -0.18359375 2.95703125 C-0.12300781 1.98121094 -0.06242187 1.00539063 0 0 Z " fill="#E0888A" transform="translate(90,405)"/>
<path d="M0 0 C4.03112033 1.42188608 7.17779042 3.35844204 10.625 5.875 C11.56601563 6.55304687 12.50703125 7.23109375 13.4765625 7.9296875 C15.77171203 9.81270491 17.36001103 11.54551986 19 14 C18.01 14 17.02 14 16 14 C16 14.99 16 15.98 16 17 C13.69 16.67 11.38 16.34 9 16 C9 20.29 9 24.58 9 29 C7.51327149 26.02654298 6.68909707 24.19604254 6.03515625 21.1015625 C5.87466797 20.37453125 5.71417969 19.6475 5.54882812 18.8984375 C5.22637808 17.39108067 4.90604135 15.88327012 4.58789062 14.375 C3.58459123 9.85015968 2.18787218 6.1264142 0 2 C0 1.34 0 0.68 0 0 Z " fill="#E1696A" transform="translate(151,39)"/>
<path d="M0 0 C4.29 0 8.58 0 13 0 C13 3.96 13 7.92 13 12 C8.71 12 4.42 12 0 12 C0 8.04 0 4.08 0 0 Z " fill="#CAB5B1" transform="translate(91,230)"/>
<path d="M0 0 C41.58 0 83.16 0 126 0 C126 0.33 126 0.66 126 1 C66.105 1.495 66.105 1.495 5 2 C7.97 3.485 7.97 3.485 11 5 C11.99 6.485 11.99 6.485 13 8 C9 8 9 8 7.625 6.6875 C7.08875 6.130625 6.5525 5.57375 6 5 C4.02379014 3.95377125 2.0262871 2.94560065 0 2 C0 1.34 0 0.68 0 0 Z " fill="#7E7E7E" transform="translate(90,389)"/>
<path d="M0 0 C3.5625 0.25 3.5625 0.25 6.5625 2.25 C6.89669015 5.25771135 7.09020924 7.35056383 6.5625 10.25 C4.35529774 12.96655663 2.95131081 13.1944556 -0.5 13.6875 C-3.4375 13.25 -3.4375 13.25 -5.375 11.6875 C-6.88390049 8.22590475 -6.3076627 5.86452199 -5.4375 2.25 C-3.4375 0.25 -3.4375 0.25 0 0 Z " fill="#F26F6F" transform="translate(277.4375,375.75)"/>
<path d="M0 0 C11.88 0 23.76 0 36 0 C36 4.95 36 9.9 36 15 C24.12 15 12.24 15 0 15 C0 10.05 0 5.1 0 0 Z M2 2 C2 5.96 2 9.92 2 14 C12.89 14 23.78 14 35 14 C35 10.04 35 6.08 35 2 C24.11 2 13.22 2 2 2 Z " fill="#494949" transform="translate(235,228)"/>
<path d="M0 0 C1.9375 0.8125 1.9375 0.8125 4 2 C4.98043964 4.94131891 5.11621202 6.82501665 5.09765625 9.88671875 C5.09515869 10.73194092 5.09266113 11.57716309 5.09008789 12.44799805 C5.08098389 13.51703369 5.07187988 14.58606934 5.0625 15.6875 C5.041875 19.090625 5.02125 22.49375 5 26 C18.2 26 31.4 26 45 26 C45 26.66 45 27.32 45 28 C31.14 28 17.28 28 3 28 C2.625 17.9375 2.625 17.9375 2.52197266 14.80834961 C2.29774602 9.54916973 1.7015263 4.98699375 0 0 Z " fill="#616161" transform="translate(177,216)"/>
<path d="M0 0 C4.6081187 -0.07436755 9.21588514 -0.12870394 13.82446289 -0.16479492 C15.39093107 -0.17984622 16.95735736 -0.20029207 18.52368164 -0.22631836 C20.78021606 -0.26286433 23.03619153 -0.27976261 25.29296875 -0.29296875 C25.98899704 -0.30845261 26.68502533 -0.32393646 27.40214539 -0.33988953 C31.7966774 -0.34139757 34.46777205 0.37869978 38 3 C39 4 39 4 39.3125 6.8125 C39 10 39 10 37.125 12.3125 C33.6100138 15.10381257 31.56407657 15.11924309 27.1171875 15.09765625 C25.95058594 15.09443359 24.78398437 15.09121094 23.58203125 15.08789062 C22.35871094 15.07951172 21.13539063 15.07113281 19.875 15.0625 C18.64394531 15.05798828 17.41289062 15.05347656 16.14453125 15.04882812 C13.09630608 15.0370133 10.04817686 15.02054028 7 15 C6.67 15.99 6.34 16.98 6 18 C5.67 17.01 5.34 16.02 5 15 C5.33 14.34 5.66 13.68 6 13 C20.85 12.505 20.85 12.505 36 12 C36 9.36 36 6.72 36 4 C32.35170023 1.68941015 28.79931605 1.65718401 24.609375 1.5859375 C23.90476135 1.56657135 23.20014771 1.5472052 22.47418213 1.5272522 C20.23290961 1.46767265 17.99158511 1.42115877 15.75 1.375 C14.22654062 1.33680021 12.70310238 1.29774731 11.1796875 1.2578125 C7.45331894 1.16198982 3.72679165 1.07787893 0 1 C0 0.67 0 0.34 0 0 Z " fill="#3F3F3F" transform="translate(400,215)"/>
<path d="M0 0 C9.9 0 19.8 0 30 0 C29.67 1.32 29.34 2.64 29 4 C28.01 4.495 28.01 4.495 27 5 C27 4.01 27 3.02 27 2 C20.07 2 13.14 2 6 2 C5.67 3.98 5.34 5.96 5 8 C4.67 7.34 4.34 6.68 4 6 C3.34 6 2.68 6 2 6 C1.34 4.02 0.68 2.04 0 0 Z " fill="#B65657" transform="translate(47,284)"/>
<path d="M0 0 C9.9 0 19.8 0 30 0 C29 4 29 4 26 6 C26 4.68 26 3.36 26 2 C18.41 2 10.82 2 3 2 C2.67 2.99 2.34 3.98 2 5 C1.34 3.35 0.68 1.7 0 0 Z " fill="#B55556" transform="translate(214,284)"/>
<path d="M0 0 C7.26 0 14.52 0 22 0 C19.75 11.25 19.75 11.25 17.875 15.125 C17.34519531 16.24261719 17.34519531 16.24261719 16.8046875 17.3828125 C16.53914063 17.91648437 16.27359375 18.45015625 16 19 C15.10993351 16.52133383 14.89438065 15.31574627 15.7421875 12.78125 C16.30292969 11.65203125 16.30292969 11.65203125 16.875 10.5 C18.31577853 7.55799068 19.19050483 5.23798068 20 2 C13.4 2 6.8 2 0 2 C0 1.34 0 0.68 0 0 Z " fill="#525252" transform="translate(305,388)"/>
<path d="M0 0 C0 3 0 3 -0.5625 5.5625 C-1.25042261 7.99764861 -1.25042261 7.99764861 0 10 C6.6 10 13.2 10 20 10 C20 10.99 20 11.98 20 13 C13.07 13 6.14 13 -1 13 C-4 7 -4 7 -3.875 4.8125 C-2.88098316 2.75346511 -1.71774331 1.49368984 0 0 Z " fill="#CCBA51" transform="translate(306,363)"/>
<path d="M0 0 C0.33 0 0.66 0 1 0 C1 2.64 1 5.28 1 8 C10.9 7.505 10.9 7.505 21 7 C20.67 7.99 20.34 8.98 20 10 C12.74 10 5.48 10 -2 10 C-1.34 6.7 -0.68 3.4 0 0 Z " fill="#C6B34B" transform="translate(231,366)"/>
<path d="M0 0 C7.26 0 14.52 0 22 0 C22 0.66 22 1.32 22 2 C15.4 2 8.8 2 2 2 C2.33 4.97 2.66 7.94 3 11 C1 9 1 9 0 0 Z " fill="#515151" transform="translate(229,388)"/>
<path d="M0 0 C4.95 0 9.9 0 15 0 C15 0.33 15 0.66 15 1 C10.71 1 6.42 1 2 1 C2.33 4.63 2.66 8.26 3 12 C6.63 12.33 10.26 12.66 14 13 C14 13.33 14 13.66 14 14 C9.38 14 4.76 14 0 14 C0 9.38 0 4.76 0 0 Z " fill="#BE6528" transform="translate(20,257)"/>
<path d="M0 0 C0.66 0.33 1.32 0.66 2 1 C1.690625 1.9075 1.38125 2.815 1.0625 3.75 C-0.47689013 9.04506536 -0.65820302 14.52225363 -1 20 C-2.53720703 20.09087891 -2.53720703 20.09087891 -4.10546875 20.18359375 C-5.46615695 20.26805026 -6.82683343 20.35269567 -8.1875 20.4375 C-8.86103516 20.47681641 -9.53457031 20.51613281 -10.22851562 20.55664062 C-13.89699102 20.78927565 -17.41694206 21.17207011 -21 22 C-20 20 -20 20 -17 19 C-14.42734182 18.92970879 -11.88358569 18.90629168 -9.3125 18.9375 C-8.61060547 18.94201172 -7.90871094 18.94652344 -7.18554688 18.95117188 C-5.45699462 18.96293073 -3.72848635 18.98086546 -2 19 C-2.02320312 17.79601562 -2.04640625 16.59203125 -2.0703125 15.3515625 C-2.08906863 13.77604785 -2.10726899 12.20052652 -2.125 10.625 C-2.14175781 9.8309375 -2.15851562 9.036875 -2.17578125 8.21875 C-2.19335473 6.14507985 -2.10335168 4.07116759 -2 2 C-1.34 1.34 -0.68 0.68 0 0 Z " fill="#575757" transform="translate(29,223)"/>
<path d="M0 0 C0.66 0.33 1.32 0.66 2 1 C-3.17703948 6.83444132 -8.40280876 12.56478535 -14 18 C-14.66 17.67 -15.32 17.34 -16 17 C-10.82296052 11.16555868 -5.59719124 5.43521465 0 0 Z " fill="#C9C6C6" transform="translate(60,59)"/>
<path d="M0 0 C0.66 0 1.32 0 2 0 C2.33 0.66 2.66 1.32 3 2 C6.71279469 3.23759823 10.31306346 3.35608897 14.1875 3.5625 C14.93708984 3.60568359 15.68667969 3.64886719 16.45898438 3.69335938 C18.30578375 3.79922685 20.15286834 3.9000976 22 4 C22 4.66 22 5.32 22 6 C19.2697611 6.1083667 16.54385457 6.18746694 13.8125 6.25 C13.04357422 6.28351563 12.27464844 6.31703125 11.48242188 6.3515625 C7.43881179 6.4209807 5.4771605 6.2957051 1.94921875 4.109375 C0 2 0 2 0 0 Z " fill="#323232" transform="translate(201,224)"/>
<path d="M0 0 C0.33 0 0.66 0 1 0 C1.1875 2.3125 1.1875 2.3125 1 5 C-0.375 6.5 -0.375 6.5 -2 8 C-2.68753301 9.65816784 -3.35561283 11.32459336 -4 13 C-4.66 13.66 -5.32 14.32 -6 15 C-6.99 15 -7.98 15 -9 15 C-7.38340534 11.58809167 -5.45729895 8.43782465 -3.4375 5.25 C-2.50744141 3.77273438 -2.50744141 3.77273438 -1.55859375 2.265625 C-1.04425781 1.51796875 -0.52992188 0.7703125 0 0 Z " fill="#DBC445" transform="translate(254,293)"/>
<path d="M0 0 C3.77523396 5.66285094 3.3129719 12.26636474 2.25 18.8125 C1.44489816 22.7056637 0.44042847 25.78307156 -2 29 C-2.66 28.67 -3.32 28.34 -4 28 C-3.71125 27.48695313 -3.4225 26.97390625 -3.125 26.4453125 C1.04145475 17.85199957 0.36507761 9.30947895 0 0 Z " fill="#3B3B3B" transform="translate(109,405)"/>
<path d="M0 0 C0.8125 1.6875 0.8125 1.6875 1 4 C-1.3125 6.5 -1.3125 6.5 -4 9 C-5.29519995 11.16620544 -5.29519995 11.16620544 -6 13 C-6.66 13 -7.32 13 -8 13 C-8.33 14.32 -8.66 15.64 -9 17 C-9.66 17 -10.32 17 -11 17 C-9.56407335 12.88016856 -7.53749031 9.74182002 -4.9375 6.25 C-4.22464844 5.28578125 -3.51179688 4.3215625 -2.77734375 3.328125 C-1 1 -1 1 0 0 Z " fill="#B05455" transform="translate(92,53)"/>
<path d="M0 0 C2.49118953 3.7367843 2.2065226 5.74451819 2.125 10.1875 C2.10695312 11.45980469 2.08890625 12.73210938 2.0703125 14.04296875 C2.03550781 15.50669922 2.03550781 15.50669922 2 17 C2.99 17.33 3.98 17.66 5 18 C3.35 18.33 1.7 18.66 0 19 C0 12.73 0 6.46 0 0 Z " fill="#656565" transform="translate(139,3)"/>
<path d="M0 0 C0.66 0.66 1.32 1.32 2 2 C1.690625 2.598125 1.38125 3.19625 1.0625 3.8125 C-0.10209704 6.08956772 -0.10209704 6.08956772 -1 9 C-3.64 6.69 -6.28 4.38 -9 2 C-7.68 1.67 -6.36 1.34 -5 1 C-4.13375 0.773125 -3.2675 0.54625 -2.375 0.3125 C-1.199375 0.1578125 -1.199375 0.1578125 0 0 Z " fill="#E6CD46" transform="translate(324,331)"/>
<path d="M0 0 C0.8971875 0.309375 0.8971875 0.309375 1.8125 0.625 C1.19375 0.7075 0.575 0.79 -0.0625 0.875 C-2.34471074 1.40189733 -2.34471074 1.40189733 -3.09375 3.46875 C-4.34039284 5.92641732 -5.68748538 7.14350661 -7.8125 8.875 C-8.44414063 9.39578125 -9.07578125 9.9165625 -9.7265625 10.453125 C-10.20867188 10.83984375 -10.69078125 11.2265625 -11.1875 11.625 C-11.1875 8.10101214 -10.63634893 7.60995633 -8.375 5.0625 C-7.59189453 4.16337891 -7.59189453 4.16337891 -6.79296875 3.24609375 C-3.05884365 -0.5243732 -3.05884365 -0.5243732 0 0 Z " fill="#404140" transform="translate(70.1875,392.375)"/>
<path d="M0 0 C4.10958767 1.45044271 7.43258745 3.51110752 11 6 C9.68 7.32 8.36 8.64 7 10 C5.83043409 8.52312468 4.66441854 7.04343707 3.5 5.5625 C2.8503125 4.73878906 2.200625 3.91507813 1.53125 3.06640625 C0 1 0 1 0 0 Z " fill="#D4D1D1" transform="translate(183,47)"/>
<path d="M0 0 C0.33 0.66 0.66 1.32 1 2 C1.66 2 2.32 2 3 2 C3 3.98 3 5.96 3 8 C2.34 8 1.68 8 1 8 C1 6.68 1 5.36 1 4 C0.34 4 -0.32 4 -1 4 C-1.33 7.63 -1.66 11.26 -2 15 C-2.33 15 -2.66 15 -3 15 C-3.55353075 4.44191344 -3.55353075 4.44191344 0 0 Z " fill="#CE807F" transform="translate(72,407)"/>
<path d="M0 0 C3.59478807 3.32850747 6.22364768 6.98971331 9 11 C8.67 11.66 8.34 12.32 8 13 C6.68 12.01 5.36 11.02 4 10 C3.01 10.495 3.01 10.495 2 11 C1.34 7.37 0.68 3.74 0 0 Z " fill="#D7C043" transform="translate(36,293)"/>
<path d="M0 0 C0.66 0 1.32 0 2 0 C1.68289062 0.48984375 1.36578125 0.9796875 1.0390625 1.484375 C-0.41373615 5.001677 -0.46584752 8.49665393 -0.625 12.25 C-0.68300781 13.36761719 -0.68300781 13.36761719 -0.7421875 14.5078125 C-0.83605108 16.3381524 -0.91909718 18.16904143 -1 20 C-3.64 20 -6.28 20 -9 20 C-9 19.67 -9 19.34 -9 19 C-6.69 19 -4.38 19 -2 19 C-2.02320313 17.79601562 -2.04640625 16.59203125 -2.0703125 15.3515625 C-2.08906863 13.77604785 -2.10726899 12.20052652 -2.125 10.625 C-2.14175781 9.8309375 -2.15851562 9.036875 -2.17578125 8.21875 C-2.19335473 6.14507985 -2.10335168 4.07116759 -2 2 C-1.34 1.34 -0.68 0.68 0 0 Z " fill="#7A7A7A" transform="translate(50,223)"/>
<path d="M0 0 C2.10754729 2.10754729 2.72139167 3.51990766 3.8125 6.25 C5.65246829 10.54788819 7.83914121 13.57573631 11 17 C5.82105371 14.845925 2.85672029 10.69824246 0 6 C-0.4375 2.4375 -0.4375 2.4375 0 0 Z " fill="#717171" transform="translate(56,423)"/>
<path d="M0 0 C0.66935682 2.25907927 0.99826643 4.06760938 0.9375 6.4375 C1.0101803 9.4173924 1.61146837 11.36909797 3 14 C3.99 14.33 4.98 14.66 6 15 C5.67 15.99 5.34 16.98 5 18 C-0.85409117 12.44611863 -0.85409117 12.44611863 -1.1328125 7.7734375 C-1.13023437 6.98195313 -1.12765625 6.19046875 -1.125 5.375 C-1.12757813 4.57835937 -1.13015625 3.78171875 -1.1328125 2.9609375 C-1 1 -1 1 0 0 Z " fill="#D3898A" transform="translate(265,376)"/>
<path d="M0 0 C0.99 0.33 1.98 0.66 3 1 C2.00102287 3.99693138 1.34869747 5.02709413 -1 7 C-1.66 7 -2.32 7 -3 7 C-3.33 8.32 -3.66 9.64 -4 11 C-5 8 -5 8 -4.2578125 6.2109375 C-1.11111111 1.11111111 -1.11111111 1.11111111 0 0 Z " fill="#CAB443" transform="translate(238,353)"/>
<path d="M0 0 C3.386081 3.87876474 3.44406763 6.59610732 3.296875 11.5859375 C2.91748374 14.67098747 1.99331214 16.6233586 0 19 C-0.66 19.33 -1.32 19.66 -2 20 C-0.125 15.25 -0.125 15.25 1 13 C1.17218202 8.52326748 0.85736786 4.39401026 0 0 Z " fill="#949494" transform="translate(285,180)"/>
<path d="M0 0 C0.99 0 1.98 0 3 0 C1.46990911 3.44270451 -0.4931222 6.18925822 -3 9 C-3.99 9.33 -4.98 9.66 -6 10 C-4.63356852 6.01457486 -2.89890986 3.07460137 0 0 Z " fill="#5B5B5B" transform="translate(305,160)"/>
<path d="M0 0 C0.66 0.99 1.32 1.98 2 3 C-1.44615385 9.76923077 -1.44615385 9.76923077 -4.25 10.9375 C-4.8275 10.958125 -5.405 10.97875 -6 11 C-4.54955729 6.89041233 -2.48889248 3.56741255 0 0 Z " fill="#CEB842" transform="translate(175,286)"/>
<path d="M0 0 C4.38863278 1.34097113 6.65110486 3.02494669 9 7 C8.75 10.3125 8.75 10.3125 8 13 C7.67 13 7.34 13 7 13 C6.6596875 11.1128125 6.6596875 11.1128125 6.3125 9.1875 C5.5017093 5.83189177 5.31489575 5.22492554 2.375 3.125 C1.59125 2.75375 0.8075 2.3825 0 2 C0 1.34 0 0.68 0 0 Z " fill="#6C6D6D" transform="translate(198,39)"/>
<path d="M0 0 C-1.07107117 0.86949317 -2.15745944 1.72014205 -3.25 2.5625 C-3.85328125 3.03816406 -4.4565625 3.51382812 -5.078125 4.00390625 C-7 5 -7 5 -9.234375 4.65234375 C-9.81703125 4.43707031 -10.3996875 4.22179687 -11 4 C-4.45754717 -1.33726415 -4.45754717 -1.33726415 0 0 Z " fill="#C67B7D" transform="translate(277,369)"/>
<path d="M0 0 C1.75665645 5.69356026 -0.75511881 10.70849435 -3 16 C-4.49828872 12.11764181 -3.43110582 9.56550712 -2.0625 5.75 C-1.68222656 4.67234375 -1.30195312 3.5946875 -0.91015625 2.484375 C-0.45962891 1.25460938 -0.45962891 1.25460938 0 0 Z " fill="#BF5E60" transform="translate(72,86)"/>
<path d="M0 0 C1.25348607 2.95106435 1.01044806 3.97406463 -0.21484375 7.015625 C-1.06755859 8.61664063 -1.06755859 8.61664063 -1.9375 10.25 C-2.50339844 11.32765625 -3.06929687 12.4053125 -3.65234375 13.515625 C-4.09707031 14.33546875 -4.54179687 15.1553125 -5 16 C-6.32095328 12.03714015 -5.27105135 10.64909563 -3.625 6.875 C-3.16351562 5.79992187 -2.70203125 4.72484375 -2.2265625 3.6171875 C-1 1 -1 1 0 0 Z " fill="#888888" transform="translate(20,87)"/>
<path d="M0 0 C0.33 0.99 0.66 1.98 1 3 C-0.43359375 5.26171875 -0.43359375 5.26171875 -2.4375 7.6875 C-3.09621094 8.49574219 -3.75492188 9.30398438 -4.43359375 10.13671875 C-4.95050781 10.75160156 -5.46742188 11.36648438 -6 12 C-6.33 11.34 -6.66 10.68 -7 10 C-3.535 5.05 -3.535 5.05 0 0 Z " fill="#2A2108" transform="translate(230,342)"/>
<path d="M0 0 C0.33 0.66 0.66 1.32 1 2 C0.36328125 3.875 0.36328125 3.875 -0.6875 6 C-1.18830078 7.051875 -1.18830078 7.051875 -1.69921875 8.125 C-3.21910635 10.31582897 -4.55687434 11.01246289 -7 12 C-5.44298069 7.32894208 -2.91552627 3.91294315 0 0 Z " fill="#C5B040" transform="translate(160,309)"/>
<path d="M0 0 C-0.33 0.66 -0.66 1.32 -1 2 C-4.47325181 3.1577506 -7.36067448 3.06866652 -11 3 C-11.33 2.34 -11.66 1.68 -12 1 C-10.37681021 0.63762737 -8.7513642 0.28534843 -7.125 -0.0625 C-6.22007813 -0.25972656 -5.31515625 -0.45695312 -4.3828125 -0.66015625 C-2 -1 -2 -1 0 0 Z " fill="#38191A" transform="translate(91,430)"/>
<path d="M0 0 C0.66 0.33 1.32 0.66 2 1 C0.02 3.31 -1.96 5.62 -4 8 C-5.32 7.67 -6.64 7.34 -8 7 C-5.36 4.69 -2.72 2.38 0 0 Z " fill="#BC5B5C" transform="translate(103,43)"/>
<path d="M0 0 C0.94875 0.04125 1.8975 0.0825 2.875 0.125 C3.205 0.785 3.535 1.445 3.875 2.125 C2.91787109 2.28935547 2.91787109 2.28935547 1.94140625 2.45703125 C1.11511719 2.61558594 0.28882812 2.77414062 -0.5625 2.9375 C-1.38621094 3.08832031 -2.20992188 3.23914063 -3.05859375 3.39453125 C-4.08146484 3.75611328 -4.08146484 3.75611328 -5.125 4.125 C-5.455 5.115 -5.785 6.105 -6.125 7.125 C-5.03177966 0.20127119 -5.03177966 0.20127119 0 0 Z " fill="#2B1D05" transform="translate(83.125,361.875)"/>
<path d="M0 0 C0.33 0 0.66 0 1 0 C1.3125 2.25 1.3125 2.25 1 5 C-1.5 7.3125 -1.5 7.3125 -4 9 C-4 4.98525763 -2.33218233 3.18024863 0 0 Z " fill="#C6AF3E" transform="translate(254,293)"/>
<path d="M0 0 C1.32 0.33 2.64 0.66 4 1 C2.02 2.98 0.04 4.96 -2 7 C-2.66 6.67 -3.32 6.34 -4 6 C-2.68 4.02 -1.36 2.04 0 0 Z " fill="#2B2B2B" transform="translate(398,216)"/>
<path d="M0 0 C0.33 0 0.66 0 1 0 C1.99 3.96 2.98 7.92 4 12 C3.01 12 2.02 12 1 12 C-0.26237731 9.47524538 -0.09856404 7.68799534 -0.0625 4.875 C-0.05347656 3.96492187 -0.04445313 3.05484375 -0.03515625 2.1171875 C-0.02355469 1.41851562 -0.01195312 0.71984375 0 0 Z " fill="#818181" transform="translate(298,170)"/>
<path d="M0 0 C3.61938095 2.64116988 5.98706523 4.97413046 8 9 C8 9.66 8 10.32 8 11 C5 10 5 10 3.4375 7.1875 C2.963125 6.135625 2.48875 5.08375 2 4 C1.608125 3.21625 1.21625 2.4325 0.8125 1.625 C0.544375 1.08875 0.27625 0.5525 0 0 Z " fill="#656565" transform="translate(232,71)"/>
<path d="M0 0 C0.33 0 0.66 0 1 0 C1.4726477 8.19256018 1.4726477 8.19256018 -0.5 11.5625 C-0.995 12.036875 -1.49 12.51125 -2 13 C-1.85769192 11.58297487 -1.71099254 10.1663904 -1.5625 8.75 C-1.48128906 7.96109375 -1.40007812 7.1721875 -1.31640625 6.359375 C-1.02365007 4.17635361 -0.57935581 2.1226818 0 0 Z " fill="#C87D7F" transform="translate(291,377)"/>
<path d="M0 0 C0 3 0 3 -0.5625 5.5 C-1.22461637 8.11786478 -1.22461637 8.11786478 0 11 C-0.99 11.495 -0.99 11.495 -2 12 C-4.05685131 7.64431487 -4.05685131 7.64431487 -3.8125 4.875 C-2.88269161 2.72928833 -1.75385898 1.52509476 0 0 Z " fill="#DEC94C" transform="translate(306,363)"/>
<path d="M0 0 C2.7972908 2.06756277 3.02692273 3.14440371 3.6875 6.6875 C3.790625 7.780625 3.89375 8.87375 4 10 C1 8 1 8 0.48828125 6.0546875 C0.32552083 4.03645833 0.16276042 2.01822917 0 0 Z " fill="#BEAB3D" transform="translate(321,360)"/>
<path d="M0 0 C0.66 0 1.32 0 2 0 C2 0.66 2 1.32 2 2 C3.32 2.66 4.64 3.32 6 4 C6 4.33 6 4.66 6 5 C8.97 5.495 8.97 5.495 12 6 C12 6.33 12 6.66 12 7 C8.8125 7.375 8.8125 7.375 5 7 C2.80738095 5.19271747 1.61442456 3.39717586 0 1 C0 0.67 0 0.34 0 0 Z " fill="#443710" transform="translate(221,319)"/>
<path d="M0 0 C0.66 0 1.32 0 2 0 C0.95902388 3.86648272 -0.03698408 7.49461443 -2 11 C-2.66 10.67 -3.32 10.34 -4 10 C-2.68 6.7 -1.36 3.4 0 0 Z " fill="#727272" transform="translate(109,423)"/>
<path d="M0 0 C0.66 0 1.32 0 2 0 C1.67 1.32 1.34 2.64 1 4 C0.34 4 -0.32 4 -1 4 C-1.33 5.32 -1.66 6.64 -2 8 C-2.66 8 -3.32 8 -4 8 C-2.87548273 5.0280615 -1.77706209 2.66559313 0 0 Z " fill="#C05D5D" transform="translate(85,62)"/>
<path d="M0 0 C3.63 0 7.26 0 11 0 C11 0.99 11 1.98 11 3 C10.37351562 2.91621094 9.74703125 2.83242188 9.1015625 2.74609375 C7.87566406 2.59333984 7.87566406 2.59333984 6.625 2.4375 C5.40683594 2.28087891 5.40683594 2.28087891 4.1640625 2.12109375 C1.95100814 1.81762672 1.95100814 1.81762672 0 3 C0 2.01 0 1.02 0 0 Z " fill="#D2BE4A" transform="translate(78,361)"/>
<path d="M0 0 C2.31 0 4.62 0 7 0 C5.49336217 3.01327566 2.96833589 3.61056618 0 5 C0 3.35 0 1.7 0 0 Z " fill="#EDD34A" transform="translate(286,335)"/>
<path d="M0 0 C0.66 0.33 1.32 0.66 2 1 C2 1.66 2 2.32 2 3 C3.32 3.33 4.64 3.66 6 4 C5.67 4.99 5.34 5.98 5 7 C2.69 5.35 0.38 3.7 -2 2 C-1.34 1.34 -0.68 0.68 0 0 Z " fill="#381313" transform="translate(157,39)"/>
<path d="M0 0 C3.96 0 7.92 0 12 0 C10.515 1.98 10.515 1.98 9 4 C9 3.34 9 2.68 9 2 C6.03 2 3.06 2 0 2 C0 1.34 0 0.68 0 0 Z " fill="#ED9494" transform="translate(78,423)"/>
<path d="M0 0 C5.53846154 0.49230769 5.53846154 0.49230769 7.875 3.0625 C8.431875 4.0215625 8.431875 4.0215625 9 5 C5 5 5 5 3.375 3.625 C2.92125 3.08875 2.4675 2.5525 2 2 C1.34 1.34 0.68 0.68 0 0 Z " fill="#4A4A4A" transform="translate(94,392)"/>
<path d="M0 0 C0.33 0.66 0.66 1.32 1 2 C-1.3125 4.5 -1.3125 4.5 -4 7 C-4.99 7 -5.98 7 -7 7 C-4.69 4.69 -2.38 2.38 0 0 Z " fill="#3E320D" transform="translate(307,343)"/>
<path d="M0 0 C0.66 0.33 1.32 0.66 2 1 C1.67 1.33 1.34 1.66 1 2 C1.66 2.33 2.32 2.66 3 3 C3.625 5.5625 3.625 5.5625 4 8 C2.02 6.35 0.04 4.7 -2 3 C-1.34 2.01 -0.68 1.02 0 0 Z " fill="#BAA63F" transform="translate(250,341)"/>
<path d="M0 0 C0.33 0.66 0.66 1.32 1 2 C1.66 2.33 2.32 2.66 3 3 C-1.625 6 -1.625 6 -5 6 C-3.74821404 3.49642808 -2.00018842 1.93566621 0 0 Z " fill="#301414" transform="translate(149,302)"/>
<path d="M0 0 C1 4 1 4 1 4 Z M-2 1 C-1.34 2.32 -0.68 3.64 0 5 C-1.65 5.66 -3.3 6.32 -5 7 C-3.125 2.125 -3.125 2.125 -2 1 Z " fill="#D2BB43" transform="translate(168,299)"/>
<path d="M0 0 C0.33 1.32 0.66 2.64 1 4 C1.66 4 2.32 4 3 4 C2.67 4.99 2.34 5.98 2 7 C1.34 7 0.68 7 0 7 C-0.66 5.35 -1.32 3.7 -2 2 C-1.34 1.34 -0.68 0.68 0 0 Z " fill="#CF6864" transform="translate(228,300)"/>
<path d="M0 0 C2.52259061 1.97420135 2.9929808 2.96745642 3.6875 6.1875 C3.790625 7.115625 3.89375 8.04375 4 9 C1.47740939 7.02579865 1.0070192 6.03254358 0.3125 2.8125 C0.209375 1.884375 0.10625 0.95625 0 0 Z " fill="#6A6A6A" transform="translate(244,89)"/>
</svg>
